<svg xmlns="http://www.w3.org/2000/svg" xmlns:xlink="http://www.w3.org/1999/xlink" version="1.1" x="0px" y="0px" viewBox="0 0 1869.1 250.4" style="enable-background:new 0 0 1869.1 250.4;" xml:space="preserve">
<style type="text/css">
	.st0{fill:#676459;}
	.st1{fill:#679E91;}
</style>
<g>
	<g>
		<g>
			<g>
				<path class="st0" d="M377.4,186.9c-1.1,0-1.5,0.4-1.9,2.2c-1.3,4.3-2.6,6.9-4.1,9.1c-2.4,3.2-7.4,7.1-11,8.6      c-3.7,1.5-17.9,2.8-30,2.8c-1.1,0-1.9,0-12.5-0.6c-9.7-0.4-11.5-3.5-11.7-20.8l-0.9-52.1c0-0.6,0.2-1.3,0.7-1.5h1.5      c0,0,11-0.7,14.7-0.7c12.8,0.2,21,0.4,21,0.4c8.4,0.2,12.3,3.7,13.6,11.9c0.6,5,1.3,6.1,2.8,6.1c1.1,0,1.5-0.6,1.5-1.7v-3.2      l-1.3-15.3v-11.9l0.6-7.3c0-1.5-0.6-2.4-1.7-2.4c-1.5,0-2.2,1.1-2.8,4.5c-1.3,7.6-4.1,9.1-16.2,9.1h-32.6c-1.7,0-2-0.2-2-2.4      v-5.4V65.6l0.2-6.3c0-1.9,0.9-2.4,4.1-2.6l8.4-0.4h27c15.8,0,21.2,3,24.6,14.3l1.3,4.1c0.6,1.7,1.3,2.4,2.4,2.4      c1.3,0,2.2-1.1,2.2-3.5c0-0.9-0.2-1.9-0.4-3.2c-0.4-3.9-0.9-8.9-0.9-13.4c0-1.7,0-3.2,0.2-4.8v-1.7c0-1.9-1.1-3.7-2.8-3.7      c-0.4,0-0.9,0-51,1.1c-1.1,0-57.4-0.6-66.7-0.4h-3.2c-4.5,0-8.4-0.2-11.5-0.4c0,0-1.9-0.2-3.2-0.2c-2.8,0-3.7,1.1-3.7,2.2      c0,1.1,1.1,2.2,2.8,2.4l7.6,1.3c4.1,0.6,6.5,3.5,6.5,7.6c0,3.7-2.2,9.7-6.9,20.5l-48.6,110c-0.4,1.1-1.1,1.5-1.5,1.5      c-0.9,0-1.3-0.7-1.9-2l-45-111.8L139.7,63c-0.2-1.1-0.4-2.4-0.4-3.9c0-5,1.7-6.7,7.1-7.4c2.6-0.2,3.9-1.3,3.9-2.8      c0-2.2-3.2-2.2-4.8-2.2c-2.2,0-15.3,0.9-17.3,0.9c-3.9,0-15.8-0.9-18.6-0.9H103c-1.1,0-1.9,0.9-1.9,1.9c0,1.5,0.7,2.2,3.2,2.6      l6.3,1.3c4.3,0.9,7.8,3.9,9.9,8.9l16,38.5c0,0,1.1,2.8,1.1,3.7c0,0.2-0.2,0.9-0.6,2l-1.9,4.1c-3.7,7.8-9.5,21.6-17.5,41.1      c-6.5,15.6-11.7,27.2-15.8,35l-3,5.8c-0.4,0.9-1.1,1.3-1.7,1.3c-0.6,0-1.1-0.4-1.5-1.3L48.1,75.3c-3.2-8.2-4.3-12.5-4.3-15.4      c0-4.8,1.5-6.7,5.8-7.6c3.5-0.9,5.2-1.9,5.2-3.5c0-1.5-0.9-2.2-2.6-2.2l-4.3,0.4H10.7c-1.9,0-3,0.9-3,2.4c0,1.7,1.1,2.6,4.1,3      l3.9,0.6c2.4,0.4,6.3,3.9,8.6,7.6c2.6,4.3,6.7,12.8,12.5,26.6l21.4,50.1l30.3,74.2c1.3,3.2,1.9,5,1.9,5.2      c0.6,2.4,1.3,3.2,2.6,3.2c0.6,0,1.3-0.2,1.5-0.6c0.4-1.1,0.6-1.1,1.3-2.8l43.7-100.3c0.7-1.3,1.5-2.2,2.2-2.2      c0.6,0,1.5,0.6,1.9,1.7l3,7.6c3.7,9.1,8,18.6,12.1,28.8c10.4,25.3,16.9,41.1,19.7,47.6l8.2,19c0.2,0.4,1.1,0.9,1.7,0.9      c0.6,0,1.3-0.2,1.5-0.6c0.2-0.2,0.9-1.3,1.5-3l65.7-150.4c2.2-5,3.4-9,8.6-11.9c5.3-2.9,14.2-4.3,19.3,1.1c2.6,2.7,2.6,8.2,3,16      c0.2,2.6,0.6,46.3,0.6,46.3v72l-0.2,10.2c-0.2,6.5-1.1,9.1-3.5,10.8c-1.9,1.5-6.1,3.2-8.6,3.9c-4.3,0.9-5,1.5-5,2.8      c0,0.9,0.6,1.5,1.7,1.5l4.1-0.2c5.6-0.2,24.9-0.6,51.4-0.6c19.7,0,31.6,0.4,35.2,0.4h3.9c4.1,0,5-0.9,6.3-6.9l2.6-9.3      c1.3-5,2.6-10.8,2.6-12.7C379.3,187.3,378.7,186.9,377.4,186.9"/>
				<path class="st0" d="M464.9,132.8L450,122.7c-20.7-14.3-29.6-25.9-29.6-38.9c0-17.5,12.1-29.2,30-29.2c8.6,0,15.1,1.5,19.9,4.3      c4.1,2.6,5.4,4.8,7.6,12.1c0.6,2.4,1.1,4.3,1.3,5.8c0.6,2.6,1.3,3.2,2.8,3.2c1.5,0,2.4-0.9,2.4-2.6c0-2.4-1.1-14.7-1.1-18.4      v-3.2c0-6-0.9-7.6-5-8c-0.9,0-2.4-0.2-4.5-0.4c-8.9-1.3-15.1-1.7-20.5-1.7c-27.9,0-45.6,17.5-45.6,44.5c0,9.9,2.6,18.4,7.8,24.9      c4.5,6.1,11.2,12.1,24.4,21.2l14.3,9.9c7.1,5,14.9,12.8,17.7,17.3c2.2,3.7,3.7,9.9,3.7,15.8c0,18.6-13.8,32.2-32.9,32.2      c-14.3,0-24.4-3.9-30-11.5c-3.2-4.1-5.2-8.4-6.7-14.5c-0.4-2.2-1.1-2.8-2.6-2.8c-1.3,0-1.9,0.7-1.9,2.4c0,2.4,0.7,6.3,1.1,8.4      c0,0,1.1,5.4,1.3,7.6l1.5,12.1c0.4,3.2,0.6,3.7,2.2,4.1l6.3,1.3c8.6,1.7,12.8,2.2,19.9,2.2c35.9,0,55.8-16.6,55.8-46.9      C489.3,156.4,482.9,144.9,464.9,132.8"/>
				<path class="st0" d="M881.7,47.2c-3.2,0-9.9,0-19.2,0.2h-3.2c-4.5,0-8.4-0.2-11.5-0.4c0,0-2-0.2-3.2-0.2c-2.8,0-3.7,1.1-3.7,2.2      c0,1.1,1.1,2.2,2.8,2.4l7.6,1.3c4.1,0.6,6.5,3.5,6.5,7.6c0,3.7-2.2,9.7-6.9,20.5l-48.6,110c-0.4,1.1-1.1,1.5-1.5,1.5      c-0.9,0-1.3-0.7-1.9-2l-45-111.8L748.6,63c-0.2-1.1-0.4-2.4-0.4-3.9c0-5,1.7-6.7,7.1-7.4c2.6-0.2,3.9-1.3,3.9-2.8      c0-2.2-3.2-2.2-4.7-2.2c-2.2,0-15.4,0.9-17.3,0.9c-3.9,0-15.8-0.9-18.6-0.9h-6.7c-1.1,0-2,0.9-2,1.9c0,1.5,0.7,2.2,3.2,2.6      l6.3,1.3c4.3,0.9,7.8,3.9,9.9,8.9l16,38.5c0,0,1.1,2.8,1.1,3.7c0,0.2-0.2,0.9-0.6,2l-2,4.1c-3.7,7.8-9.5,21.6-17.5,41.1      c-6.5,15.6-11.7,27.2-15.8,35l-3,5.8c-0.4,0.9-1.1,1.3-1.7,1.3c-0.7,0-1.1-0.4-1.5-1.3L656.9,75.3c-3.2-8.2-4.3-12.5-4.3-15.4      c0-4.8,1.5-6.7,5.8-7.6c3.5-0.9,5.2-1.9,5.2-3.5c0-1.5-0.9-2.2-2.6-2.2l-4.3,0.4l-85.5,0.4c-2.8,0-65.3-1.1-65.3-1.1      c-1.7,0-1.9,0.2-2.6,3l-1.7,7.6l-2,9.7l-1.9,6.5c-0.2,0.7-0.4,1.1-0.4,1.7c0,0.9,0.6,1.3,1.9,1.3c0.9,0,1.3-0.2,2-1.7      c3.2-7.1,7.3-11.9,11.7-13.6c4.3-1.7,9.7-2.6,21.4-3c5.6-0.2,10.6-0.2,14.9-0.2c11.7,0,12.5,0.4,12.5,7.6l-0.4,108.5      c0,17.9-0.4,27-1.7,30.7c-1.1,3.2-4.5,6-8.4,6.9l-7.6,1.5c0,0-3,0.4-3.9,0.9c-0.9,0.4-1.1,1.3-1.1,1.7c0,1.3,0.7,2.4,1.7,2.4      c1.1,0,3.5-0.2,4.5-0.2l48.9,0.2h4.3c1.9,0,2.8-0.9,2.8-2.4c0-2.2-2.4-2.2-3.7-2.6l-4.5-0.9c-10.4-1.9-14.3-5.8-14.3-14.1V67.3      c0-1.5,0.2-5.8,0.2-5.8c0.2-1.3,1.1-2,2.8-2.2l4.8-0.4c4.8-0.4,12.1-0.7,19.5-0.7c14,0,26-0.5,29.6,6.3      c3.5,6.7,4.7,9.1,10.6,22.9l21.4,50.1l30.3,74.2c1.3,3.2,2,5,2,5.2c0.6,2.4,1.3,3.2,2.6,3.2c0.6,0,1.3-0.2,1.5-0.6      c0.4-1.1,0.7-1.1,1.3-2.8l43.7-100.3c0.6-1.3,1.5-2.2,2.2-2.2c0.7,0,1.5,0.6,2,1.7l3,7.6c3.7,9.1,8,18.6,12.1,28.7      c10.4,25.3,16.9,41.1,19.7,47.6l8.2,19c0.2,0.4,1.1,0.9,1.7,0.9c0.6,0,1.3-0.2,1.5-0.6c0.2-0.2,0.9-1.3,1.5-3l65.7-150.4      c2.2-5,4.3-9.7,8.6-11.9c2-1.1,4.3-1.5,6.1-1.7c3-0.2,5.2-1.1,5.2-3C885.8,47.4,884.1,47.2,881.7,47.2"/>
				<path class="st0" d="M941.5,217.8l3.7,0.2c1.3,0,2.2-0.9,2.2-2.2s-1.3-2.2-3.9-2.6c-4.8-0.9-8.4-2.2-10.4-3.7      c-3.5-2.8-4.1-6.3-4.3-18.8l-0.6-30.5v-57.7c0-17.9,0.6-34.2,1.7-39.8c0.4-2,1.1-3.9,2.4-5.4c1.9-2.6,5.4-4.5,9.9-5.6      c3.5-0.6,4.8-1.7,4.8-3.2c0-1.3-0.4-1.7-2.2-1.7c-6.7,0.4-12.7,0.4-22.7,0.4h-8.2c-5,0-11.2-0.4-15.6-0.4      c-2.6,0-3.5,0.6-3.5,2.4c0,0.9,0.4,1.5,2,1.7c0,0,5.2,0.9,6.9,1.3c3.9,1.1,6.7,5.2,7.4,11.2c0.4,3.2,0.7,6.9,0.7,11l-0.2,87.1      c-0.2,35.7-0.2,38.3-2.6,43.2c-1.7,3.7-5.2,6.3-9.5,7.6c-4.3,1.1-5.2,1.9-5.2,3.5c0,1.3,0.9,2.2,2.2,2.2l3-0.2      c3.9-0.2,9.7-0.7,17.5-0.7C927.6,217.1,936.1,217.6,941.5,217.8"/>
				<path class="st0" d="M1119.7,215.6v-65.7c0,0,1.7-68.1,1.7-70.3l0.7-16.4c0.2-4.5,1.3-6.9,3.9-8c2.2-1.1,9.7-3.2,9.7-3.2      c1.5-0.6,2.2-1.3,2.2-2.6c0-1.5-0.9-2.4-2.6-2.4h-36.5c0,0-2.8-0.2-3.9-0.2c-2.2,0-3.7,0.9-3.7,2.6c0,1.3,1.5,2,4.5,2.4l4.5,0.6      c7.6,1.1,11.7,5,11.9,12.3l0.2,5.2l-1.3,103.3c0,4.8-0.4,8.4-0.6,10.2c-0.2,1.5-0.4,2.2-0.9,2.2c-0.2,0-0.7-0.2-1.3-0.9      l-9.5-12.1c-9.1-11.5-21.6-26.8-37.4-46c-24.4-29.4-41.7-51-51.9-64.6l-9.5-12.3c-2.2-2.8-4.5-4.1-7.8-4.1H975      c-1.1,0-2.2,0.6-2.2,1.7c0,1.3,1.7,2.2,5.8,5.2c3.2,2.4,5.2,4.5,12.3,12.8c1.5,1.7,2.8,5.2,2.8,11.5c0,1.1-1.7,91.9-1.7,91.9      c-0.2,12.3-0.4,24-1.1,29.4c-0.2,2.8-0.9,5.4-2,7.6c-1.3,3-4.5,5.8-7.6,6.5l-4.8,1.1c-2.4,0.7-3.4,1.5-3.4,2.8      c0,0.9,0.9,1.7,2.4,1.7c2.2,0,19.9-0.4,19.9-0.4l24,0.9c2.4,0,3.2-0.4,3.2-1.9c0-1.1-1.1-2.2-2.6-2.4l-5.8-0.9      c-7.1-1.1-11.5-7.4-11.7-16.4c0,0-0.2-6.9-0.2-8.9V96.1c0-5,0-8.4,0.6-10.2c0.2-0.9,0.9-1.3,1.5-1.3c0.4,0,1.3,0.2,1.9,1.1      c0,0,3.5,3.9,5.4,6.3c0,0,33.3,41.5,35.9,44.7l42.4,50.2l9.5,12.5c1.1,1.5,3.7,4.7,7.4,9.9c2,2.8,3.5,4.8,4.3,6.3      c3,4.8,4.1,5.8,6.1,5.8C1119.4,221.5,1119.7,220.6,1119.7,215.6"/>
				<path class="st0" d="M1308.2,157c0,0-14.1,0.6-20.5,0.6c-8.4,0-16.4-0.4-18.8-0.6c-2.4-0.2-6.1-0.4-6.7-0.4      c-2.2,0-3.7,1.1-3.7,2.8c0,1.5,1.1,2.4,2.6,2.6l8,1.1c7.8,1.1,8.9,5.8,8.9,12.5v22c0,8.2-14.9,14.1-35.4,14.1      c-42.1,0-73.3-35.7-73.3-83.7c0-47.1,24-73.9,65.9-73.9c12.5,0,20.1,1.7,31.6,7.1c5.2,2.6,9.7,5.6,13.2,8.6      c5,4.3,6.7,7.6,10.6,18.2c0.9,2.6,1.3,4.1,1.7,6.1c0.4,2.4,0.9,3.5,2.8,3.5c2.4,0,2.6-0.6,2.6-2.6c0-0.9-0.2-4.3-0.4-8.4      c-0.4-6.9-0.7-14.3-0.7-21.8c0-3.5-0.4-4.3-3.5-5.8l-3.9-2c-13.2-6.5-19.7-8.6-29.6-10.6c-6.5-1.3-14.1-2-21.4-2      c-50.4,0-87.1,38.3-87.1,90.8c0,31.3,13,57.5,36.3,73.1c14.5,9.5,30,13.4,54.9,13.4c9.9,0,16.9-1.1,29.6-4.8      c5.6-1.7,10.2-3.5,13.4-5l7.8-3.7c2.4-1.1,3-1.7,3-3.5c0-0.7-0.4-7.8-0.4-10.2v-12.5c0-12.8,3.4-18.4,11.9-19.2      c3.5-0.4,4.8-1.3,4.8-3.5C1312.3,157.9,1310.8,157,1308.2,157"/>
			</g>
		</g>
		<path class="st1" d="M1376.8,128.2c-0.4,0.4,44.7-58.3,44.7-58.3c11.3-14,22.7-20.9,33.6-20.5c7.4,0,24.4,3.5,24,10    c0,5.2-4.8,22.7-14,52.8c-9.2,29.7-13.5,51.5-14,65c-0.4,9.2,0,15.7,0.9,18.8c9.4,27,41.4-0.5,51.4-7c6.5-4.4-1.4-6.8,13-19.4    c2.2,2.2-6.8-0.7,8.1,0.5c14.9,1.2,17,16.2-10.8,35s-38,20.1-53.9,20.1c-21,0-40.2-14.6-40.2-42.6c0-4.4,0.4-8.7,1.3-13.1    c2.4-29.5,19.5-75.3,13.8-77.6c-5.6-2.2-94.8,134.6-94.8,134.6c-10.9-3.9-16.1-11.3-15.7-22.3c0-1.3,5.9-19.9,14.2-38.7    c10-29.7,16.8-68.5,33.8-116.5c1.3-0.4,3.1-0.9,4.8-0.9c10,0,15,10.3,12.8,20.8C1387.4,81.1,1379.2,110.5,1376.8,128.2z"/>
		<path class="st1" d="M1597.1,174c-18.8,34.3-38.4,51.2-58.7,50.1c-25.9-1-40.4-17.8-42.9-50.5c-0.3-4.4-0.3-8.7-0.1-12.7    c1.7-45.2,23.3-82.8,64.7-112.8c-5.2-4.8-8.1-8.1-7.8-10.3c0.2-8.3,6.5-12.7,14.7-13.3c14.4-1.1,25.9,7.1,38.7,24.5    c11.8,16.1,17.4,31.5,16.8,46.4C1622,117.7,1613.5,143.8,1597.1,174z M1586.8,65.3c-23.3,10.2-41,29.9-54.1,58.5    c-10.8,24.1-14.9,44.1-12.8,60.1c0.2,2.2,1.8,6,4.3,10.6l7.1,0.8c12.3,0.8,26.6-13,42.2-41.8c14.9-27.4,22.4-49.5,22.4-65.7    C1595.9,76,1592.7,68.4,1586.8,65.3z"/>
		<path class="st1" d="M1836.9,133.4c-17.9,34.5-58.9,90.3-77.3,90.3s-18.4-25.9-20.6-42c-0.9-15.3-1.8-42-2.2-57.3    c0,0-44.1,67.9-63.5,84.4s-40.1,17.7-45.4,12.5c-5.5-5.4-6.8-9.1-7.9-14.8c-3.9-22.4,2.5-30.3,15.2-76.1    c13.1-49.3,25-76.7,28-95.9l8.3-2.2c6.5,0.9,11.8,4.8,15.7,12.2c0,0-47.4,151.1-36.4,153.7c10.9,2.6,46.9-59.3,64.8-87.2    c16.1-25.3,23.2-48.7,25.4-49.2c2.2-0.9,4.8-1.3,7-1.3c13.5,0,19.6,6.1,19.2,18.3c0,0-1.9,58.5-2.3,75.4s-0.4,37.4,6.2,41.4    s43.1-83.2,50.9-102.9c8.3-19.6,12.2-34.9,12.2-46.3c0-2.2,0-3.9-0.4-5.2l7-0.9c2.2-0.4,6.1,1.3,11.8,4.8c5.7,3.1,8.7,5.7,9.2,7.4    C1863.1,65.2,1854.8,99.8,1836.9,133.4z"/>
	</g>
</g>
</svg>